<svg xmlns="http://www.w3.org/2000/svg" version="1.1" viewBox="-5.0 -10.0 110.0 135.0">
 <path d="m75 3.125h-50c-5.8008 0.007812-11.359 2.3125-15.461 6.4141-4.1016 4.1016-6.4062 9.6602-6.4141 15.461v50c0.007812 5.8008 2.3125 11.359 6.4141 15.461 4.1016 4.1016 9.6602 6.4062 15.461 6.4141h50c5.8008-0.007812 11.359-2.3125 15.461-6.4141 4.1016-4.1016 6.4062-9.6602 6.4141-15.461v-50c-0.007812-5.8008-2.3125-11.359-6.4141-15.461-4.1016-4.1016-9.6602-6.4062-15.461-6.4141zm15.625 71.875c-0.003906 4.1406-1.6523 8.1133-4.582 11.043-2.9297 2.9297-6.9023 4.5781-11.043 4.582h-50c-4.1406-0.003906-8.1133-1.6523-11.043-4.582-2.9297-2.9297-4.5781-6.9023-4.582-11.043v-50c0.003906-4.1406 1.6523-8.1133 4.582-11.043 2.9297-2.9297 6.9023-4.5781 11.043-4.582h50c4.1406 0.003906 8.1133 1.6523 11.043 4.582 2.9297 2.9297 4.5781 6.9023 4.582 11.043zm-40.625-46.875c-5.8008 0-11.367 2.3047-15.469 6.4062s-6.4062 9.668-6.4062 15.469 2.3047 11.367 6.4062 15.469 9.668 6.4062 15.469 6.4062 11.367-2.3047 15.469-6.4062 6.4062-9.668 6.4062-15.469c-0.007812-5.8008-2.3125-11.359-6.4141-15.461-4.1016-4.1016-9.6602-6.4062-15.461-6.4141zm0 37.5c-4.1445 0-8.1172-1.6445-11.047-4.5781-2.9336-2.9297-4.5781-6.9023-4.5781-11.047s1.6445-8.1172 4.5781-11.047c2.9297-2.9336 6.9023-4.5781 11.047-4.5781s8.1172 1.6445 11.047 4.5781c2.9336 2.9297 4.5781 6.9023 4.5781 11.047-0.003906 4.1406-1.6523 8.1133-4.582 11.043-2.9297 2.9297-6.9023 4.5781-11.043 4.582zm32.031-42.188c0 2.2109-1.332 4.207-3.375 5.0508-2.043 0.84766-4.3984 0.37891-5.9609-1.1836s-2.0312-3.918-1.1836-5.9609c0.84375-2.043 2.8398-3.375 5.0508-3.375 3.0195 0 5.4688 2.4492 5.4688 5.4688z"/>
<text x="0.0" y="117.5" font-size="5.0" font-weight="bold" font-family="Arbeit Regular, Helvetica, Arial-Unicode, Arial, Sans-serif" fill="#000000">Created by Ricons</text><text x="0.0" y="122.5" font-size="5.0" font-weight="bold" font-family="Arbeit Regular, Helvetica, Arial-Unicode, Arial, Sans-serif" fill="#000000">from Noun Project</text></svg>